<svg width="206" height="40" viewBox="0 0 206 40" fill="none" xmlns="http://www.w3.org/2000/svg">
<g clip-path="url(#clip0_136_333)">
<path d="M24.0981 40C22.2903 40 20.7513 39.4626 19.481 38.3877C18.3084 37.4594 17.5022 36.2868 17.0625 34.8699C16.6228 33.4042 16.5984 31.9873 16.9892 30.6193C16.9892 30.6193 17.0137 30.5704 17.0625 30.4727C17.1114 30.3261 17.1602 30.1551 17.2091 29.9597C14.5219 31.572 12.079 32.7935 9.88041 33.624C8.02381 34.308 6.1672 34.2348 4.3106 33.4042C2.454 32.5247 1.18369 31.1567 0.499684 29.3001C-0.233186 27.3947 -0.159899 25.5136 0.719544 23.657C1.59899 21.8004 2.96701 20.5301 4.82361 19.8461C5.6542 19.5529 7.04665 18.8445 9.00097 17.7208C11.0041 16.597 13.7158 14.6672 17.1358 11.9311C19.1878 10.2699 20.8734 8.82863 22.1926 7.60718C23.5606 6.33688 24.2446 5.70172 24.2446 5.70172C26.2478 3.79626 28.593 3.18554 31.2802 3.86955C33.2834 4.40699 34.798 5.57958 35.824 7.38732C36.6057 8.75534 36.9477 10.1478 36.85 11.5647C36.7523 12.9816 36.4836 14.6183 36.0438 16.4749C35.995 16.9635 35.8973 17.4521 35.7507 17.9406C35.6041 18.3804 35.4575 18.8689 35.311 19.4064C36.8744 19.3087 38.3157 19.6507 39.6349 20.4324C41.0029 21.2141 42.0045 22.3379 42.6397 23.8036C43.4702 25.6113 43.5191 27.4679 42.7862 29.3734C42.0534 31.23 40.7586 32.5736 38.902 33.4042C36.8011 34.3325 34.8957 35.2364 33.1856 36.1158C31.5245 36.9952 30.1809 37.7037 29.1549 38.2411C28.1777 38.7786 27.6647 39.0473 27.6158 39.0473C26.4433 39.6824 25.2707 40 24.0981 40Z" fill="#1E293B"/>
<path d="M51.8498 40C50.042 40 48.503 39.4626 47.2327 38.3877C46.0601 37.4594 45.2539 36.2868 44.8142 34.8699C44.3745 33.4042 44.3501 31.9873 44.7409 30.6193C44.7409 30.6193 44.7654 30.5704 44.8142 30.4727C44.8631 30.3261 44.9119 30.1551 44.9608 29.9597C42.2736 31.572 39.8307 32.7935 37.6321 33.624C35.7755 34.308 33.9189 34.2348 32.0623 33.4042C30.2057 32.5247 28.9354 31.1567 28.2514 29.3001C27.5185 27.3947 27.5918 25.5136 28.4712 23.657C29.3507 21.8004 30.7187 20.5301 32.5753 19.8461C33.4059 19.5529 34.7983 18.8445 36.7527 17.7208C38.7558 16.597 41.4674 14.6672 44.8875 11.9311C46.9395 10.2699 48.6251 8.82863 49.9443 7.60718C51.3123 6.33688 51.9963 5.70172 51.9963 5.70172C53.9995 3.79626 56.3447 3.18554 59.0319 3.86955C61.0351 4.40699 62.5497 5.57958 63.5757 7.38732C64.3574 8.75534 64.6994 10.1478 64.6017 11.5647C64.504 12.9816 64.2352 14.6183 63.7955 16.4749C63.7467 16.9635 63.649 17.4521 63.5024 17.9406C63.3558 18.3804 63.2092 18.8689 63.0627 19.4064C64.6261 19.3087 66.0674 19.6507 67.3866 20.4324C68.7546 21.2141 69.7562 22.3379 70.3914 23.8036C71.2219 25.6113 71.2708 27.4679 70.5379 29.3734C69.8051 31.23 68.5103 32.5736 66.6537 33.4042C64.5528 34.3325 62.6474 35.2364 60.9373 36.1158C59.2762 36.9952 57.9326 37.7037 56.9066 38.2411C55.9294 38.7786 55.4164 39.0473 55.3675 39.0473C54.1949 39.6824 53.0224 40 51.8498 40Z" fill="#1E293B"/>
<path d="M86.1281 10.6119H88.0043V16.4749C88.8642 14.5206 90.3299 12.9571 92.4015 11.7845C94.473 10.5729 96.7596 9.96702 99.2611 9.96702C102.505 9.96702 105.065 11.0028 106.942 13.0744C108.857 15.1069 109.814 17.9602 109.814 21.6343V36.9952H107.938V21.6343C107.938 18.4683 107.157 16.0059 105.593 14.247C104.069 12.4881 101.919 11.6086 99.1439 11.6086C97.1114 11.6086 95.2352 12.0777 93.5154 13.0158C91.8347 13.9147 90.4862 15.1655 89.47 16.768C88.4928 18.3706 88.0043 20.1881 88.0043 22.2206V36.9952H86.1281V10.6119Z" fill="#1E293B"/>
<path d="M129.178 37.9333C126.52 37.9333 124.117 37.2884 121.967 35.9985C119.817 34.6696 118.136 32.9303 116.925 30.7805C115.713 28.5917 115.107 26.2269 115.107 23.6863C115.107 21.1848 115.713 18.8592 116.925 16.7094C118.175 14.5597 119.856 12.8594 121.967 11.6086C124.117 10.3188 126.501 9.67387 129.12 9.67387C131.699 9.67387 134.044 10.3188 136.155 11.6086C138.305 12.8594 139.986 14.5597 141.197 16.7094C142.409 18.8592 143.015 21.1848 143.015 23.6863C143.015 26.3051 142.428 28.7089 141.256 30.8978C140.083 33.0475 138.442 34.7673 136.331 36.0572C134.259 37.3079 131.875 37.9333 129.178 37.9333ZM129.178 36.2917C131.406 36.2917 133.439 35.7249 135.276 34.5914C137.113 33.4579 138.539 31.9531 139.556 30.077C140.611 28.1617 141.139 26.0706 141.139 23.8036C141.139 21.5757 140.611 19.5041 139.556 17.5889C138.5 15.6736 137.054 14.1493 135.217 13.0158C133.38 11.8823 131.348 11.3155 129.12 11.3155C126.892 11.3155 124.84 11.9018 122.963 13.0744C121.126 14.2079 119.661 15.7323 118.566 17.6475C117.511 19.5627 116.983 21.6343 116.983 23.8622C116.983 26.0901 117.511 28.1617 118.566 30.077C119.661 31.9531 121.126 33.4579 122.963 34.5914C124.84 35.7249 126.911 36.2917 129.178 36.2917Z" fill="#1E293B"/>
<path d="M157.719 37.347C154.827 37.347 152.423 36.4676 150.508 34.7087C148.632 32.9498 147.694 30.5264 147.694 27.4386V0H149.57V10.6119H157.661V12.2536H149.57V27.4386C149.57 30.0183 150.332 32.0508 151.856 33.5361C153.42 34.9823 155.374 35.7054 157.719 35.7054V37.347Z" fill="#1E293B"/>
<path d="M174.905 36.0572C176.937 36.0572 178.872 35.5295 180.709 34.4742C182.546 33.4188 184.07 31.9726 185.282 30.1356V33.1257C183.836 34.7282 182.253 35.9008 180.533 36.6435C178.813 37.347 176.859 37.6988 174.67 37.6988C172.247 37.6988 169.96 37.0539 167.81 35.764C165.7 34.4742 164 32.7544 162.71 30.6046C161.459 28.4549 160.834 26.1683 160.834 23.745C160.834 21.1262 161.459 18.781 162.71 16.7094C163.96 14.5988 165.661 12.9571 167.81 11.7845C169.999 10.6119 172.423 10.0257 175.081 10.0257C179.146 10.0257 182.605 11.6282 185.458 14.8333L167.048 33.0084C168.338 34.0638 169.589 34.8455 170.801 35.3536C172.012 35.8226 173.38 36.0572 174.905 36.0572ZM162.71 23.5691C162.71 26.8132 163.785 29.5884 165.934 31.8945L183.113 14.8333C181.823 13.6998 180.572 12.8985 179.361 12.4295C178.149 11.9213 176.703 11.6673 175.022 11.6673C172.638 11.6673 170.507 12.1949 168.631 13.2503C166.794 14.2665 165.348 15.6736 164.293 17.4716C163.237 19.2696 162.71 21.3021 162.71 23.5691Z" fill="#1E293B"/>
<path d="M197.127 37.6402C195.25 37.6402 193.589 37.3275 192.143 36.7021C190.697 36.0376 189.661 35.1973 189.036 34.181V31.0737C189.778 32.7544 190.795 34.0051 192.084 34.8259C193.374 35.6077 195.016 35.9985 197.009 35.9985C198.925 35.9985 200.469 35.4122 201.641 34.2396C202.814 33.028 203.4 31.4841 203.4 29.6079C203.4 28.0054 203.068 26.7742 202.403 25.9143C201.739 25.0153 200.664 24.1163 199.179 23.2173L196.951 21.9274C195.348 20.9503 194.137 20.1881 193.316 19.6409C192.534 19.0546 191.909 18.4097 191.44 17.7061C190.971 16.9635 190.736 16.1036 190.736 15.1264C190.736 13.563 191.283 12.3122 192.378 11.3741C193.472 10.4361 194.899 9.96702 196.658 9.96702C198.807 9.96702 200.605 10.4556 202.052 11.4328V14.0125C200.84 12.4099 199.101 11.6086 196.833 11.6086C195.583 11.6086 194.566 11.9213 193.785 12.5467C193.003 13.1721 192.612 13.9734 192.612 14.9505C192.612 15.8104 192.847 16.5726 193.316 17.2371C193.785 17.8625 194.43 18.4488 195.25 18.996C196.11 19.5432 197.517 20.364 199.472 21.4584C201.465 22.5919 202.931 23.7645 203.869 24.9762C204.807 26.1488 205.276 27.6927 205.276 29.6079C205.276 32.0313 204.475 33.9856 202.872 35.4709C201.309 36.9171 199.394 37.6402 197.127 37.6402Z" fill="#1E293B"/>
</g>
<defs>
<clipPath id="clip0_136_333">
<rect width="205.276" height="40" fill="white"/>
</clipPath>
</defs>
</svg>
